<?xml version="1.0" standalone="no"?>
<!DOCTYPE svg PUBLIC "-//W3C//DTD SVG 20010904//EN"
 "http://www.w3.org/TR/2001/REC-SVG-20010904/DTD/svg10.dtd">
<svg version="1.0" xmlns="http://www.w3.org/2000/svg"
 width="222.000000pt" height="227.000000pt" viewBox="0 0 222.000000 227.000000"
 preserveAspectRatio="xMidYMid meet">

<g transform="translate(0.000000,227.000000) scale(0.100000,-0.100000)"
fill="#000000" stroke="none">
<path d="M1035 1979 c-96 -12 -238 -58 -323 -105 -139 -78 -282 -219 -361
-356 -40 -71 -78 -173 -96 -260 -20 -92 -19 -288 1 -386 64 -313 297 -576 602
-681 205 -70 438 -64 641 16 267 105 479 343 551 618 62 237 21 519 -107 724
-191 307 -544 474 -908 430z m375 -127 c151 -50 288 -142 387 -261 63 -77 145
-237 167 -331 82 -347 -57 -694 -358 -894 -137 -91 -267 -128 -446 -128 -244
0 -429 79 -601 258 -165 171 -237 365 -226 603 6 133 23 205 73 310 113 241
334 416 595 471 24 5 105 8 179 6 119 -3 146 -7 230 -34z"/>
<path d="M1052 1810 c-91 -13 -158 -34 -253 -82 -67 -33 -102 -60 -174 -132
-102 -103 -144 -168 -188 -293 -30 -84 -32 -95 -32 -238 1 -138 3 -156 28
-230 41 -118 99 -209 191 -300 147 -146 285 -205 497 -213 105 -3 139 -1 207
16 267 68 476 275 548 542 24 89 24 281 0 369 -55 203 -182 368 -358 468 -132
75 -318 112 -466 93z m334 -390 c68 -38 135 -70 149 -70 13 0 74 14 135 31 88
24 114 28 125 19 8 -7 29 -58 47 -114 24 -77 33 -125 36 -201 5 -142 5 -142
-114 -176 -127 -36 -144 -37 -144 -4 0 15 9 31 24 40 30 20 50 67 43 97 -5 18
-58 53 -211 141 -113 64 -216 117 -228 117 -26 0 -58 -27 -58 -49 0 -10 5 -7
13 9 24 47 51 39 262 -82 108 -62 201 -121 206 -131 7 -13 5 -28 -8 -55 -15
-31 -23 -37 -48 -36 -16 0 -39 4 -50 8 -11 4 -8 0 6 -8 36 -21 42 -40 25 -81
-19 -46 -43 -57 -84 -39 -33 13 -33 13 -17 -9 20 -29 19 -49 -6 -81 -23 -30
-47 -33 -89 -11 -29 15 -30 15 -30 -9 0 -62 -44 -100 -89 -77 -17 10 -19 15
-9 42 15 43 -3 76 -54 99 -24 10 -56 33 -72 50 -35 36 -66 46 -96 30 -18 -10
-27 -8 -59 14 -45 31 -72 33 -96 6 -10 -11 -23 -20 -30 -20 -7 0 -20 9 -30 20
-23 26 -68 26 -103 0 l-27 -20 -123 33 c-68 19 -128 39 -134 45 -15 15 -15
225 1 282 17 65 52 153 66 168 10 11 36 8 147 -22 75 -20 143 -36 152 -36 9 0
63 27 119 60 75 43 113 60 140 60 48 0 54 -14 18 -40 -50 -35 -70 -73 -92
-179 l-22 -102 23 -22 22 -22 -16 31 c-14 29 -14 38 8 128 13 53 32 106 42
118 41 45 149 117 178 118 17 0 76 -27 152 -70z m-572 -534 c38 -16 52 -45 36
-76 -6 -11 -8 -20 -6 -20 3 0 15 18 26 40 24 47 59 73 86 64 33 -12 54 -36 54
-62 0 -24 0 -24 29 7 16 17 37 31 46 31 28 0 75 -54 68 -79 -5 -19 -2 -20 26
-15 41 9 81 -17 81 -52 0 -39 -57 -140 -87 -153 -32 -15 -70 7 -86 48 l-10 27
-23 -23 c-13 -13 -32 -23 -44 -23 -31 0 -70 29 -70 53 0 20 -1 20 -25 -3 -21
-20 -28 -22 -49 -12 -41 19 -60 56 -47 93 14 41 15 40 -13 28 -29 -14 -81 10
-91 42 -12 38 20 89 63 98 1 1 18 -5 36 -13z"/>
<path d="M1139 1144 c-13 -15 -37 -35 -54 -45 -16 -11 -24 -19 -17 -19 18 0
69 39 87 67 20 30 14 29 -16 -3z"/>
</g>
</svg>
